<svg width="24" height="24" viewBox="0 0 24 24" fill="none" xmlns="http://www.w3.org/2000/svg">
<path d="M12.0171 12.5778C12.4741 12.5778 12.8853 12.3608 13.3651 11.8924L22.7663 2.57116C22.3665 2.18277 21.6126 2 20.5502 2H3.14136C2.23893 2 1.58782 2.17135 1.22228 2.52546L10.6806 11.8924C11.149 12.3608 11.5716 12.5778 12.0171 12.5778ZM0.285578 18.9748L7.96192 11.367L0.274155 3.78201C0.0913851 4.10186 0 4.63874 0 5.40409V17.3413C0 18.1066 0.0913851 18.6549 0.285578 18.9748ZM23.7373 18.9519C23.9086 18.6321 24 18.0952 24 17.3413V5.40409C24 4.66159 23.9086 4.1247 23.7373 3.80485L16.0723 11.367L23.7373 18.9519ZM3.44979 20.7454H20.8586C21.7839 20.7454 22.4236 20.5626 22.7891 20.2199L14.9643 12.4522L14.2561 13.1604C13.5136 13.8686 12.8053 14.2113 12.0171 14.2113C11.2289 14.2113 10.5207 13.8686 9.7782 13.1604L9.06997 12.4522L1.26797 20.197C1.6792 20.5626 2.41028 20.7454 3.44979 20.7454Z" fill="black"/>
</svg>
